<?xml version="1.0" encoding="UTF-8"?>
<svg width="96px" height="96px" viewBox="0 0 96 96" version="1.1" xmlns="http://www.w3.org/2000/svg" xmlns:xlink="http://www.w3.org/1999/xlink">
    <!-- Generator: Sketch 50.2 (55047) - http://www.bohemiancoding.com/sketch -->
    <title>6</title>
    <desc>Created with Sketch.</desc>
    <defs>
        <linearGradient x1="100%" y1="50%" x2="0%" y2="50%" id="linearGradient-1">
            <stop stop-color="#F66F6A" offset="0%"></stop>
            <stop stop-color="#F7807A" offset="100%"></stop>
        </linearGradient>
    </defs>
    <g id="模版" stroke="none" stroke-width="1" fill="none" fill-rule="evenodd">
        <g id="Artboard" transform="translate(-1032.000000, -805.000000)" fill="url(#linearGradient-1)">
            <g id="Group-Copy-4" transform="translate(1029.000000, 808.000000)">
                <path d="M54.6904297,40.5214844 C54.5537103,35.531225 52.2181216,32.9905604 47.6835938,32.8994141 C43.1262793,32.9905604 40.8020838,35.531225 40.7109375,40.5214844 L40.7109375,61.6445312 C40.8020838,66.6803637 43.1262793,69.2210284 47.6835938,69.2666016 C52.2181216,69.2210284 54.5537103,66.6803637 54.6904297,61.6445312 L54.6904297,40.5214844 Z M33.5673828,40.0771484 C33.612956,35.4742608 35.0826678,31.931002 37.9765625,29.4472656 C40.6881646,26.9863158 43.9238093,25.7558594 47.6835938,25.7558594 C51.557311,25.7558594 54.8499213,26.9863158 57.5615234,29.4472656 C60.3186987,31.931002 61.7428381,35.4742608 61.8339844,40.0771484 L61.8339844,62.0546875 C61.7428381,66.6347885 60.3186987,70.1666542 57.5615234,72.6503906 C54.8499213,75.1113404 51.557311,76.3645831 47.6835938,76.4101562 C43.9238093,76.3645831 40.6881646,75.1113404 37.9765625,72.6503906 C35.0826678,70.1666542 33.612956,66.6347885 33.5673828,62.0546875 L33.5673828,40.0771484 Z M90.4765625,25.6533203 C90.4993491,25.6533203 90.3911145,25.8982723 90.1518555,26.3881836 C89.9125965,26.8780949 89.5878927,27.5445921 89.1777344,28.3876953 C88.7675761,29.2307985 88.2890652,30.1992133 87.7421875,31.2929688 L86.0161133,34.7451172 C85.4122691,35.9528055 84.7970409,37.1718688 84.1704102,38.4023438 C83.5437794,39.6328187 82.9399443,40.8063095 82.3588867,41.9228516 C81.7778291,43.0393936 81.2480493,44.0533809 80.7695312,44.9648438 C80.2910132,45.8763066 79.8922542,46.605466 79.5732422,47.1523438 C80.2340528,46.764972 80.9803018,46.5314132 81.8120117,46.4516602 C82.6437216,46.3719072 83.6064398,46.3548175 84.7001953,46.4003906 C86.2724688,46.4459638 87.6453392,46.7193985 88.8188477,47.2207031 C89.9923561,47.7220077 91.0006468,48.3486291 91.84375,49.1005859 C92.6868532,49.8525428 93.3875298,50.6899368 93.9458008,51.612793 C94.5040718,52.5356491 94.9427067,53.4357052 95.2617188,54.3129883 C95.5807308,55.1902713 95.8028965,56.0105756 95.9282227,56.7739258 C96.0535488,57.537276 96.1162109,58.1354145 96.1162109,58.5683594 L96.1162109,60.5336914 C96.1162109,60.9780296 96.1105144,61.4280576 96.0991211,61.8837891 C96.0877278,62.3395205 96.0706381,62.7268864 96.0478516,63.0458984 C96.025065,63.2054044 95.9510097,63.6212531 95.8256836,64.293457 C95.7003574,64.9656609 95.4724951,65.763179 95.1420898,66.6860352 C94.8116845,67.6088913 94.3388703,68.6000924 93.7236328,69.659668 C93.1083954,70.7192436 92.2994842,71.7218377 91.296875,72.6674805 C90.2942658,73.6131232 89.0752025,74.427731 87.6396484,75.1113281 C86.2040944,75.7949253 84.4951271,76.2164706 82.5126953,76.3759766 C80.4391172,76.5582691 78.6048257,76.4215518 77.0097656,75.9658203 C75.4147056,75.5100889 74.0361386,74.8606813 72.8740234,74.0175781 C71.7119083,73.174475 70.7434935,72.2003636 69.96875,71.0952148 C69.1940065,69.9900661 68.5844749,68.8564511 68.1401367,67.6943359 C67.6957986,66.5322208 67.3995776,65.4156955 67.2514648,64.3447266 C67.1033521,63.2737577 67.0748693,62.3623084 67.1660156,61.6103516 C67.3027351,60.4938095 67.4508456,59.4969119 67.6103516,58.6196289 C67.7698576,57.7423459 67.957844,56.9049519 68.1743164,56.1074219 C68.3907888,55.3098918 68.6357408,54.5237669 68.9091797,53.7490234 C69.1826186,52.97428 69.5016258,52.1311895 69.8662109,51.2197266 C69.9573572,50.9918608 70.2080058,50.4506879 70.6181641,49.5961914 C71.0283224,48.7416949 71.535316,47.6878318 72.1391602,46.4345703 C72.7430043,45.1813088 73.4208947,43.8027419 74.1728516,42.2988281 C74.9248084,40.7949144 75.6767541,39.2682369 76.4287109,37.71875 C78.2060636,34.1184716 80.1998587,30.0967019 82.4101562,25.6533203 L90.4765625,25.6533203 Z M89.0410156,62.1230469 C89.0410156,61.2571571 89.0068363,60.3001354 88.9384766,59.2519531 C88.8701168,58.2037708 88.6137718,57.2068732 88.1694336,56.2612305 C87.7250954,55.3155877 87.0016326,54.50098 85.9990234,53.8173828 C84.9964143,53.1337856 83.5722749,52.7236335 81.7265625,52.5869141 C80.8606728,52.5185543 80.0745478,52.6096993 79.3681641,52.8603516 C78.6617803,53.1110039 78.035159,53.4527973 77.4882812,53.8857422 C76.9414035,54.3186871 76.4685892,54.8142876 76.0698242,55.3725586 C75.6710592,55.9308296 75.3406589,56.4833957 75.0786133,57.0302734 C74.8165677,57.5771512 74.6285813,58.0841448 74.5146484,58.5512695 C74.4007156,59.0183943 74.34375,59.3772774 74.34375,59.6279297 C74.34375,60.197594 74.3551431,60.8299119 74.3779297,61.5249023 C74.4007163,62.2198928 74.4747715,62.9148728 74.6000977,63.6098633 C74.7254238,64.3048537 74.9361964,64.9770475 75.2324219,65.6264648 C75.5286473,66.2758822 75.9501926,66.8512345 76.4970703,67.3525391 C77.043948,67.8538437 77.7446246,68.2639958 78.5991211,68.5830078 C79.4536176,68.9020198 80.5188738,69.0615234 81.7949219,69.0615234 C82.8203176,69.08431 83.7146772,68.9532892 84.4780273,68.668457 C85.2413775,68.3836249 85.8907851,68.0190452 86.4262695,67.574707 C86.961754,67.1303689 87.4003889,66.6347684 87.7421875,66.0878906 C88.0839861,65.5410129 88.3517243,65.0055365 88.5454102,64.4814453 C88.739096,63.9573542 88.8701168,63.4845399 88.9384766,63.0629883 C89.0068363,62.6414367 89.0410156,62.328126 89.0410156,62.1230469 Z" id="06"></path>
                <path d="M48,1.73205081 L80.9711432,20.7679492 C82.8275496,21.839746 83.9711432,23.8205081 83.9711432,25.9641016 L83.9711432,64.0358984 C83.9711432,66.1794919 82.8275496,68.160254 80.9711432,69.2320508 L48,88.2679492 C46.1435935,89.339746 43.8564065,89.339746 42,88.2679492 L9.02885683,69.2320508 C7.17245037,68.160254 6.02885683,66.1794919 6.02885683,64.0358984 L6.02885683,25.9641016 C6.02885683,23.8205081 7.17245037,21.839746 9.02885683,20.7679492 L42,1.73205081 C43.8564065,0.660254038 46.1435935,0.660254038 48,1.73205081 Z" id="Polygon" opacity="0.1"></path>
            </g>
        </g>
    </g>
</svg>