<?xml version="1.0" encoding="UTF-8"?>
<svg width="96px" height="96px" viewBox="0 0 96 96" version="1.1" xmlns="http://www.w3.org/2000/svg" xmlns:xlink="http://www.w3.org/1999/xlink">
    <!-- Generator: Sketch 50.2 (55047) - http://www.bohemiancoding.com/sketch -->
    <title>5</title>
    <desc>Created with Sketch.</desc>
    <defs>
        <linearGradient x1="100%" y1="50%" x2="0%" y2="50%" id="linearGradient-1">
            <stop stop-color="#F66F6A" offset="0%"></stop>
            <stop stop-color="#F7807A" offset="100%"></stop>
        </linearGradient>
    </defs>
    <g id="模版" stroke="none" stroke-width="1" fill="none" fill-rule="evenodd">
        <g id="Artboard" transform="translate(-868.000000, -805.000000)" fill="url(#linearGradient-1)">
            <g id="Group-Copy-3" transform="translate(865.000000, 808.000000)">
                <path d="M54.6904297,40.5214844 C54.5537103,35.531225 52.2181216,32.9905604 47.6835938,32.8994141 C43.1262793,32.9905604 40.8020838,35.531225 40.7109375,40.5214844 L40.7109375,61.6445312 C40.8020838,66.6803637 43.1262793,69.2210284 47.6835938,69.2666016 C52.2181216,69.2210284 54.5537103,66.6803637 54.6904297,61.6445312 L54.6904297,40.5214844 Z M33.5673828,40.0771484 C33.612956,35.4742608 35.0826678,31.931002 37.9765625,29.4472656 C40.6881646,26.9863158 43.9238093,25.7558594 47.6835938,25.7558594 C51.557311,25.7558594 54.8499213,26.9863158 57.5615234,29.4472656 C60.3186987,31.931002 61.7428381,35.4742608 61.8339844,40.0771484 L61.8339844,62.0546875 C61.7428381,66.6347885 60.3186987,70.1666542 57.5615234,72.6503906 C54.8499213,75.1113404 51.557311,76.3645831 47.6835938,76.4101562 C43.9238093,76.3645831 40.6881646,75.1113404 37.9765625,72.6503906 C35.0826678,70.1666542 33.612956,66.6347885 33.5673828,62.0546875 L33.5673828,40.0771484 Z M67.9863281,26.1660156 L94.5439453,26.1660156 L94.5439453,33.3095703 L74.7197266,33.3095703 L74.7197266,44.5888672 C77.0439569,42.7659414 79.6985528,41.8544922 82.6835938,41.8544922 C84.5976658,41.9000653 86.3522056,42.2418588 87.9472656,42.8798828 C89.4511794,43.5862666 90.6702427,44.4521433 91.6044922,45.4775391 C92.9944731,46.8447334 93.9970672,48.4283764 94.6123047,50.2285156 C94.9313167,51.2083382 95.159179,52.4046153 95.2958984,53.8173828 C95.4326179,55.2529369 95.5009766,57.0188697 95.5009766,59.1152344 C95.5009766,62.3509276 95.2731143,64.8346268 94.8173828,66.5664062 C94.3388648,68.2753992 93.5413467,69.7906835 92.4248047,71.1123047 C91.4449821,72.4111393 90.0208427,73.5960233 88.1523438,74.6669922 C86.329418,75.7835342 84.1647261,76.3645831 81.6582031,76.4101562 C78.2857904,76.4101562 75.1982562,75.4075621 72.3955078,73.4023438 C69.5471863,71.3515522 67.7812534,68.0361557 67.0976562,63.4560547 L74.2412109,63.4560547 C75.0159544,67.2841988 77.3971155,69.2210284 81.3847656,69.2666016 C83.0937585,69.2666016 84.4609324,68.9248081 85.4863281,68.2412109 C86.4661507,67.5804003 87.1497376,66.7145236 87.5371094,65.6435547 C87.9472677,64.5725858 88.1979162,63.410488 88.2890625,62.1572266 C88.3346356,60.9267517 88.3574219,59.7304746 88.3574219,58.5683594 C88.402995,55.7200378 87.9586635,53.4072354 87.0244141,51.6298828 C86.5231095,50.7867796 85.782557,50.1145858 84.8027344,49.6132812 C83.8229118,49.2031229 82.6038484,48.9980469 81.1455078,48.9980469 C79.8466732,48.9980469 78.6617892,49.2942679 77.5908203,49.8867188 C76.5198514,50.5019562 75.5628297,51.572909 74.7197266,53.0996094 L67.9863281,53.0996094 L67.9863281,26.1660156 Z" id="05"></path>
                <path d="M48,1.73205081 L80.9711432,20.7679492 C82.8275496,21.839746 83.9711432,23.8205081 83.9711432,25.9641016 L83.9711432,64.0358984 C83.9711432,66.1794919 82.8275496,68.160254 80.9711432,69.2320508 L48,88.2679492 C46.1435935,89.339746 43.8564065,89.339746 42,88.2679492 L9.02885683,69.2320508 C7.17245037,68.160254 6.02885683,66.1794919 6.02885683,64.0358984 L6.02885683,25.9641016 C6.02885683,23.8205081 7.17245037,21.839746 9.02885683,20.7679492 L42,1.73205081 C43.8564065,0.660254038 46.1435935,0.660254038 48,1.73205081 Z" id="Polygon" opacity="0.1"></path>
            </g>
        </g>
    </g>
</svg>