<?xml version="1.0" encoding="UTF-8"?>
<svg width="96px" height="96px" viewBox="0 0 96 96" version="1.1" xmlns="http://www.w3.org/2000/svg" xmlns:xlink="http://www.w3.org/1999/xlink">
    <!-- Generator: Sketch 50.2 (55047) - http://www.bohemiancoding.com/sketch -->
    <title>3</title>
    <desc>Created with Sketch.</desc>
    <defs>
        <linearGradient x1="100%" y1="50%" x2="0%" y2="50%" id="linearGradient-1">
            <stop stop-color="#F66F6A" offset="0%"></stop>
            <stop stop-color="#F7807A" offset="100%"></stop>
        </linearGradient>
    </defs>
    <g id="模版" stroke="none" stroke-width="1" fill="none" fill-rule="evenodd">
        <g id="Artboard" transform="translate(-480.000000, -805.000000)" fill="url(#linearGradient-1)">
            <g id="Group-Copy-2" transform="translate(477.000000, 808.000000)">
                <path d="M54.6904297,40.5214844 C54.5537103,35.531225 52.2181216,32.9905604 47.6835938,32.8994141 C43.1262793,32.9905604 40.8020838,35.531225 40.7109375,40.5214844 L40.7109375,61.6445312 C40.8020838,66.6803637 43.1262793,69.2210284 47.6835938,69.2666016 C52.2181216,69.2210284 54.5537103,66.6803637 54.6904297,61.6445312 L54.6904297,40.5214844 Z M33.5673828,40.0771484 C33.612956,35.4742608 35.0826678,31.931002 37.9765625,29.4472656 C40.6881646,26.9863158 43.9238093,25.7558594 47.6835938,25.7558594 C51.557311,25.7558594 54.8499213,26.9863158 57.5615234,29.4472656 C60.3186987,31.931002 61.7428381,35.4742608 61.8339844,40.0771484 L61.8339844,62.0546875 C61.7428381,66.6347885 60.3186987,70.1666542 57.5615234,72.6503906 C54.8499213,75.1113404 51.557311,76.3645831 47.6835938,76.4101562 C43.9238093,76.3645831 40.6881646,75.1113404 37.9765625,72.6503906 C35.0826678,70.1666542 33.612956,66.6347885 33.5673828,62.0546875 L33.5673828,40.0771484 Z M76.8046875,47.1523438 L79.265625,47.1523438 C81.7037882,47.1523438 83.5950454,46.48015 84.9394531,45.1357422 C86.2838609,43.8369076 86.9560547,42.1507265 86.9560547,40.0771484 C86.9104815,37.9807838 86.2155015,36.2604234 84.8710938,34.9160156 C83.526686,33.617181 81.7949325,32.9449872 79.6757812,32.8994141 C78.1490809,32.8994141 76.7591208,33.389318 75.5058594,34.3691406 C74.1842382,35.3489632 73.2955752,36.8642476 72.8398438,38.9150391 L65.6962891,38.9150391 C66.0608742,35.2236144 67.5533723,32.1132939 70.1738281,29.5839844 C72.7487108,27.0774614 75.8248519,25.8014325 79.4023438,25.7558594 C83.9368716,25.8014325 87.537096,27.2483582 90.203125,30.0966797 C92.7552211,32.8766415 94.0540362,36.1578587 94.0996094,39.9404297 C94.0996094,41.8545018 93.7578159,43.7001864 93.0742188,45.4775391 C92.2766887,47.2548917 90.8525493,48.8385347 88.8017578,50.2285156 C90.8981225,51.59571 92.4134068,53.2363186 93.3476562,55.1503906 C94.2363326,57.0644627 94.6806641,59.069651 94.6806641,61.1660156 C94.6350909,65.8372629 93.1881653,69.5172392 90.3398438,72.2060547 C87.5370954,74.9632299 83.9368709,76.3645831 79.5390625,76.4101562 C76.1438632,76.4101562 73.1360808,75.3164172 70.515625,73.1289062 C67.8951692,70.9413953 66.197595,67.7741093 65.4228516,63.6269531 L72.5664062,63.6269531 C73.2044303,65.2903729 74.1044864,66.6347605 75.2666016,67.6601562 C76.4515033,68.7311251 78.0237532,69.2666016 79.9833984,69.2666016 C82.0797631,69.2666016 83.8456959,68.5488353 85.28125,67.1132812 C86.7395906,65.7688735 87.4915362,63.8548301 87.5371094,61.3710938 C87.4915362,58.8417842 86.7395906,56.8821684 85.28125,55.4921875 C83.8456959,54.1477797 82.0227975,53.4755859 79.8125,53.4755859 L76.8046875,53.4755859 L76.8046875,47.1523438 Z" id="03"></path>
                <path d="M48,1.73205081 L80.9711432,20.7679492 C82.8275496,21.839746 83.9711432,23.8205081 83.9711432,25.9641016 L83.9711432,64.0358984 C83.9711432,66.1794919 82.8275496,68.160254 80.9711432,69.2320508 L48,88.2679492 C46.1435935,89.339746 43.8564065,89.339746 42,88.2679492 L9.02885683,69.2320508 C7.17245037,68.160254 6.02885683,66.1794919 6.02885683,64.0358984 L6.02885683,25.9641016 C6.02885683,23.8205081 7.17245037,21.839746 9.02885683,20.7679492 L42,1.73205081 C43.8564065,0.660254038 46.1435935,0.660254038 48,1.73205081 Z" id="Polygon" opacity="0.1"></path>
            </g>
        </g>
    </g>
</svg>