<?xml version="1.0" encoding="UTF-8"?>
<svg width="96px" height="96px" viewBox="0 0 96 96" version="1.1" xmlns="http://www.w3.org/2000/svg" xmlns:xlink="http://www.w3.org/1999/xlink">
    <!-- Generator: Sketch 50.2 (55047) - http://www.bohemiancoding.com/sketch -->
    <title>4</title>
    <desc>Created with Sketch.</desc>
    <defs>
        <linearGradient x1="100%" y1="50%" x2="0%" y2="50%" id="linearGradient-1">
            <stop stop-color="#F66F6A" offset="0%"></stop>
            <stop stop-color="#F7807A" offset="100%"></stop>
        </linearGradient>
    </defs>
    <g id="模版" stroke="none" stroke-width="1" fill="none" fill-rule="evenodd">
        <g id="Artboard" transform="translate(-693.000000, -805.000000)" fill="url(#linearGradient-1)">
            <g id="Group-Copy-3" transform="translate(690.000000, 808.000000)">
                <path d="M54.6904297,40.5214844 C54.5537103,35.531225 52.2181216,32.9905604 47.6835938,32.8994141 C43.1262793,32.9905604 40.8020838,35.531225 40.7109375,40.5214844 L40.7109375,61.6445312 C40.8020838,66.6803637 43.1262793,69.2210284 47.6835938,69.2666016 C52.2181216,69.2210284 54.5537103,66.6803637 54.6904297,61.6445312 L54.6904297,40.5214844 Z M33.5673828,40.0771484 C33.612956,35.4742608 35.0826678,31.931002 37.9765625,29.4472656 C40.6881646,26.9863158 43.9238093,25.7558594 47.6835938,25.7558594 C51.557311,25.7558594 54.8499213,26.9863158 57.5615234,29.4472656 C60.3186987,31.931002 61.7428381,35.4742608 61.8339844,40.0771484 L61.8339844,62.0546875 C61.7428381,66.6347885 60.3186987,70.1666542 57.5615234,72.6503906 C54.8499213,75.1113404 51.557311,76.3645831 47.6835938,76.4101562 C43.9238093,76.3645831 40.6881646,75.1113404 37.9765625,72.6503906 C35.0826678,70.1666542 33.612956,66.6347885 33.5673828,62.0546875 L33.5673828,40.0771484 Z M65.3544922,61.8496094 L82,26.1660156 L89.9638672,26.1660156 L73.1132812,61.8496094 L86.1357422,61.8496094 L86.1357422,47.5283203 L93.2792969,47.5283203 L93.2792969,61.8496094 L97.2441406,61.8496094 L97.2441406,68.5830078 L93.2792969,68.5830078 L93.2792969,76 L86.1357422,76 L86.1357422,68.5830078 L65.3544922,68.5830078 L65.3544922,61.8496094 Z" id="04"></path>
                <path d="M48,1.73205081 L80.9711432,20.7679492 C82.8275496,21.839746 83.9711432,23.8205081 83.9711432,25.9641016 L83.9711432,64.0358984 C83.9711432,66.1794919 82.8275496,68.160254 80.9711432,69.2320508 L48,88.2679492 C46.1435935,89.339746 43.8564065,89.339746 42,88.2679492 L9.02885683,69.2320508 C7.17245037,68.160254 6.02885683,66.1794919 6.02885683,64.0358984 L6.02885683,25.9641016 C6.02885683,23.8205081 7.17245037,21.839746 9.02885683,20.7679492 L42,1.73205081 C43.8564065,0.660254038 46.1435935,0.660254038 48,1.73205081 Z" id="Polygon" opacity="0.1"></path>
            </g>
        </g>
    </g>
</svg>